PathFileType	4	(X/Y/Z)	c:\Git\powerlifing_model_clean\simulations\HC835B\Session1\HC835B_OGR_0002\marker_experimental.trc
DataRate	CameraRate	NumFrames	NumMarkers	Units	OrigDataRate	OrigDataStartFrame	OrigNumFrames
240.000000	240.000000	4	38	mm	240.000000	81	218
Frame#	Time	RPSI			LPSI			RASI			LASI			RTH1			RTH2			RTH3			RTH4			RSK1			RSK2			RSK3			RSK4			RCAL1			RCAL2			RCAL3			RST			RPT			RTN			RFMB			RSMB			RVMB			RFMH			RSMH			RVMH			RPM			LTH1			LTH2			LTH3			LTH4			LSK1			LSK2			LSK3			LSK4			LCAL1			LCAL2			LCAL3			LFMH			LVMH			
		X1	Y1	Z1	X2	Y2	Z2	X3	Y3	Z3	X4	Y4	Z4	X5	Y5	Z5	X6	Y6	Z6	X7	Y7	Z7	X8	Y8	Z8	X9	Y9	Z9	X10	Y10	Z10	X11	Y11	Z11	X12	Y12	Z12	X13	Y13	Z13	X14	Y14	Z14	X15	Y15	Z15	X16	Y16	Z16	X17	Y17	Z17	X18	Y18	Z18	X19	Y19	Z19	X20	Y20	Z20	X21	Y21	Z21	X22	Y22	Z22	X23	Y23	Z23	X24	Y24	Z24	X25	Y25	Z25	X26	Y26	Z26	X27	Y27	Z27	X28	Y28	Z28	X29	Y29	Z29	X30	Y30	Z30	X31	Y31	Z31	X32	Y32	Z32	X33	Y33	Z33	X34	Y34	Z34	X35	Y35	Z35	X36	Y36	Z36	X37	Y37	Z37	X38	Y38	Z38	

82	0.3375	502.2418212890626	1210.305541992188	-847.5050048828127	392.552703857422	1209.603149414063	-841.4266357421877	555.8457031250001	1110.026977539063	-1035.994140625	321.6495666503907	1139.266845703125	-1034.438110351563	627.4622192382814	869.7946777343752	-850.0329589843752	618.2613525390626	835.4463500976565	-899.7525634765627	615.9355468750001	786.6287841796877	-838.6359863281252	595.7282104492189	754.9528808593751	-883.5865478515627	569.4523315429689	429.0225524902345	-551.3054199218751	572.5536499023439	385.7449645996095	-594.9287109375001	564.8868408203126	372.2507324218751	-536.0065307617189	556.0738525390626	331.1999511718751	-578.9348144531251	502.7704162597657	300.8296203613282	-431.0950317382814	459.184295654297	282.8397827148438	-415.8037719726564	519.8409423828126	272.9748840332032	-395.4182739257814	451.9064331054689	234.8643951416016	-469.0540771484376	545.0141601562501	223.7474822998047	-429.1606750488282	472.4130859375001	196.6035308837891	-509.3877868652345	468.3640136718751	160.2011108398438	-511.3410949707032	520.9116210937501	152.9781799316407	-520.2514648437501	544.5951538085939	170.821762084961	-429.2053833007814	451.7485656738282	98.18566894531253	-513.3234863281251	507.4590454101564	85.51567840576173	-520.2421264648439	554.0572509765626	96.09379577636722	-457.269500732422	493.939178466797	35.2107276916504	-546.4434204101564	255.0218200683594	871.6063232421877	-1042.281982421875	261.9810485839844	883.4438476562502	-1101.360595703125	263.3364562988282	802.5982055664065	-1092.113403320313	285.9225158691407	814.638122558594	-1148.3720703125	300.4421386718751	397.029510498047	-977.9934082031252	295.6325683593751	363.2247009277344	-1020.013854980469	304.9518737792969	339.1231384277344	-977.3131103515627	314.2180175781251	308.0698852539063	-1022.587890625	362.5794677734376	213.6509246826172	-874.913269042969	334.3691711425782	174.988021850586	-867.1005859375002	392.9029235839845	177.3438873291016	-871.0640258789065	406.2207031250001	131.8553619384766	-1087.105102539063	297.4377746582032	106.6934280395508	-1044.409301757813	
83	0.3416666666666667	502.2731018066407	1212.292358398438	-861.7161865234377	392.4903869628907	1211.330322265625	-855.7642211914065	555.7221069335939	1111.459228515625	-1049.838134765625	321.6179504394532	1141.482299804688	-1048.629516601563	627.4685668945314	871.7355957031252	-862.338073730469	619.1289672851564	837.2001953125002	-912.044128417969	615.9745483398439	788.7197265625002	-850.6922607421877	596.8679199218751	756.5919189453126	-895.8909912109377	571.0733642578126	432.8935546875001	-561.1805419921876	573.4738159179689	389.0665283203126	-604.2728881835939	566.7808837890626	376.6383361816407	-545.0006103515626	556.8086547851564	334.9794921875001	-587.0435791015626	504.1582031250001	308.0812072753907	-439.0679016113282	460.643768310547	290.1247863769532	-423.0677795410157	521.2064208984376	281.2037658691407	-402.5787658691407	453.6265563964845	240.496078491211	-474.7723693847657	547.0552978515626	231.574203491211	-435.0261535644532	474.3482055664064	201.3732147216797	-514.3079833984376	470.5604858398439	164.9122161865235	-514.6989746093751	523.9797973632814	158.2795104980469	-525.7228393554689	547.1475830078126	178.793930053711	-433.6091918945314	455.7177124023439	102.6908111572266	-515.5747070312501	510.4113159179689	90.3531951904297	-521.1817626953126	557.2875366210939	103.3277816772461	-459.608612060547	497.5035400390626	39.48838806152344	-546.6650390625001	256.6088256835938	871.5858154296877	-1054.47119140625	262.8680725097657	883.0781250000002	-1114.056030273438	265.0379943847657	802.2988891601565	-1103.959106445313	287.1588134765626	814.3740234375002	-1160.495361328125	303.1201171875001	390.1326904296876	-999.9036254882815	297.6229553222657	357.7839660644532	-1042.61279296875	305.7702941894532	332.8794860839844	-1000.184265136719	315.2085571289063	303.6968078613282	-1046.619750976563	363.5199890136719	203.3787384033204	-902.4844970703127	335.2398376464844	164.2678985595703	-896.4157714843752	393.8466796875001	166.8706512451172	-900.1243286132815	407.5725708007814	130.3563079833985	-1117.847412109375	298.7862243652344	103.2523498535157	-1076.436889648438	
84	0.3458333333333333	502.2691650390626	1214.0810546875	-875.9317626953127	392.5630493164064	1213.003051757813	-870.0134887695315	555.7566528320314	1112.879760742188	-1063.592651367188	321.5220031738282	1143.387084960938	-1062.700805664063	627.4866333007814	873.4672851562502	-874.9910888671877	619.7777099609376	838.725524902344	-924.707458496094	615.4970703125001	790.4261474609377	-863.0381469726565	597.8485717773439	758.0245361328126	-908.5335083007815	573.0120239257814	437.0641479492189	-571.1757812500001	574.4886474609376	392.5860290527345	-613.4628906250001	568.4514160156251	381.1311645507813	-553.9378051757814	557.4755249023439	338.7241821289063	-595.0805664062501	505.221893310547	315.2765197753907	-446.5601196289064	461.9048461914064	297.3489990234376	-430.0379028320314	522.6938476562501	289.8295898437501	-409.3527221679689	455.1306762695314	246.3432617187501	-480.5212402343751	549.2120361328126	239.6857910156251	-440.8016967773439	476.5713500976564	207.0227508544922	-520.5574951171876	472.9983825683595	170.037826538086	-518.5152587890626	526.3779907226564	163.7791290283203	-529.3692016601564	549.6290893554689	186.8700256347657	-438.1355590820314	458.5419006347657	107.5697479248047	-517.4183959960939	513.7565917968751	95.81306457519533	-523.2351684570314	560.9866333007814	110.8557891845703	-462.1504516601564	501.3443298339845	44.29266738891602	-547.5662841796876	258.1966857910157	871.2734375000002	-1066.445678710938	264.0342102050782	882.434509277344	-1126.118408203125	266.7426452636719	801.6873779296877	-1115.5869140625	288.4454650878907	813.4275512695315	-1172.287841796875	301.1125488281251	385.0152893066407	-1019.634460449219	298.0683898925782	353.9373779296876	-1064.201171875	306.5220642089844	326.9989013671876	-1023.038024902344	316.1357421875001	299.4475402832032	-1070.566040039063	364.2959899902344	193.3073425292969	-930.3865966796877	336.0502929687501	153.9748992919922	-925.8569335937502	394.7141723632814	156.8434600830078	-929.399108886719	409.0026245117189	129.3059234619141	-1148.361572265625	300.1915893554688	100.3975219726563	-1108.393310546875	
85	0.35	502.3406677246095	1215.678466796875	-890.1657714843752	392.5642089843751	1214.386962890625	-884.3592529296877	555.8434448242189	1114.134521484375	-1077.398803710938	321.3858337402344	1144.977416992188	-1076.669799804688	627.4352416992189	874.840026855469	-888.0097656250002	620.3684692382814	839.9597778320315	-937.6513671875002	615.6948242187501	791.781677246094	-875.9529418945315	598.4904174804689	759.2377319335939	-921.553649902344	574.5310058593751	441.2852783203126	-581.1998291015626	575.4135742187501	396.0852355957032	-622.5505981445314	569.8823242187501	385.7828063964845	-562.6879272460939	558.2946777343751	342.8248596191407	-602.9158935546876	506.2160949707032	322.5358886718751	-453.5552368164064	463.1438903808595	304.2863464355469	-436.592498779297	524.0283203125001	297.9517517089844	-415.9046630859376	457.0735168457032	252.3544006347657	-486.0947570800782	551.0284423828126	247.5016479492188	-446.4078369140626	477.6781616210939	211.6683197021485	-523.2396240234376	474.9103393554689	175.5268707275391	-522.1682128906251	528.9132690429689	169.5969543457032	-533.4825439453126	552.0593261718751	194.7953033447266	-442.7648315429689	461.8870544433595	112.9197387695313	-520.2410888671876	517.1520385742189	101.6113739013672	-526.0921020507814	564.7396850585939	118.4733276367188	-465.0509643554689	505.2051391601564	49.29001235961915	-549.1761474609376	259.6827697753907	870.554382324219	-1078.147827148438	265.2541198730469	881.4174804687502	-1137.930541992188	268.3915710449219	800.7217407226565	-1126.99560546875	289.8949584960938	812.2955322265627	-1183.738647460938	301.5378417968751	379.1787414550782	-1040.685791015625	299.0080261230469	349.1097412109376	-1086.526245117188	307.2077636718751	321.3308105468751	-1045.985473632813	316.9514770507813	295.5562744140626	-1094.326293945313	364.6347656250001	183.0330657958985	-958.9720458984377	336.9970703125001	144.1410064697266	-955.4949340820315	395.5781860351564	147.2926788330078	-958.7045898437502	410.5501708984376	128.5994720458985	-1178.595825195313	301.6384277343751	98.06430816650393	-1140.135620117188	
